# xmcd CD database file
#
# Track frame offsets:
#	150
#	12365
#	24837
#	42250
#	52870
#	65740
#	77580
#	87410
#	98612
#	109632
#	123080
#	134580
#	147897
#	161167
#
# Disc length: 2331 seconds
#
# Revision: 3
# Processed by: cddbd v1.5.2PL0 Copyright (c) Steve Scherf et al.
# Submitted via: CDex 1.70beta2
#
DISCID=ae09190e
DTITLE=Doyle Lawson and Quicksilver - Kept and Protected
DYEAR=1997
DGENRE=Bluegrass
TTITLE0=I Have Found The Way
TTITLE1=Did You Think To Pray
TTITLE2=I'll Trade the Old Cross (for a Crown)
TTITLE3=My Lord Is Writing All the Time
TTITLE4=I'm Not Afraid of Tomorrow
TTITLE5=Kept and Protected by God's Love
TTITLE6=The Glory-land Way
TTITLE7=Let My Life Be A Light
TTITLE8=Lord I'm Ready To Go
TTITLE9=The Vision
TTITLE10=Heaven's My Next Exit
TTITLE11=The New Jerusalem 
TTITLE12=You Are My Hiding Place
TTITLE13=We'll Go Home Togeather on the Cloud
EXTD=Bluegrass YEAR: 1997
EXTT0=
EXTT1=
EXTT2=
EXTT3=
EXTT4=
EXTT5=
EXTT6=
EXTT7=
EXTT8=
EXTT9=
EXTT10=
EXTT11=
EXTT12=
EXTT13=
PLAYORDER=
